<svg width="32" height="32" viewBox="0 0 32 32" fill="none" xmlns="http://www.w3.org/2000/svg">
<path d="M25.3333 2.66669H6.66667C5.60581 2.66669 4.58839 3.08811 3.83824 3.83826C3.0881 4.58841 2.66667 5.60582 2.66667 6.66669V25.3334C2.66667 26.3942 3.0881 27.4116 3.83824 28.1618C4.58839 28.9119 5.60581 29.3334 6.66667 29.3334H25.3333C26.3942 29.3334 27.4116 28.9119 28.1618 28.1618C28.9119 27.4116 29.3333 26.3942 29.3333 25.3334V6.66669C29.3333 5.60582 28.9119 4.58841 28.1618 3.83826C27.4116 3.08811 26.3942 2.66669 25.3333 2.66669ZM21.4533 5.33335L16.12 10.6667H10.5467L15.88 5.33335H21.4533ZM5.33334 6.66669C5.33334 6.31307 5.47381 5.97393 5.72386 5.72388C5.97391 5.47383 6.31305 5.33335 6.66667 5.33335H12.12L6.78667 10.6667H5.33334V6.66669ZM26.6667 25.3334C26.6667 25.687 26.5262 26.0261 26.2761 26.2762C26.0261 26.5262 25.687 26.6667 25.3333 26.6667H6.66667C6.31305 26.6667 5.97391 26.5262 5.72386 26.2762C5.47381 26.0261 5.33334 25.687 5.33334 25.3334V13.3334H26.6667V25.3334ZM26.6667 10.6667H19.88L25.2133 5.33335H25.3333C25.687 5.33335 26.0261 5.47383 26.2761 5.72388C26.5262 5.97393 26.6667 6.31307 26.6667 6.66669V10.6667Z" fill="#4275FA"/>
</svg>
