<svg width="28" height="24" viewBox="0 0 28 24" fill="none" xmlns="http://www.w3.org/2000/svg">
<path d="M23.3333 4.66666H21.6267L21.2 3.33332C20.9234 2.55096 20.4103 1.87399 19.7319 1.3962C19.0534 0.918413 18.2431 0.663457 17.4133 0.666656H10.5867C9.74872 0.668223 8.93244 0.9329 8.25301 1.42333C7.57359 1.91376 7.06534 2.60517 6.79999 3.39999L6.37332 4.73332H4.66666C3.60579 4.73332 2.58838 5.15475 1.83823 5.90489C1.08808 6.65504 0.666656 7.67246 0.666656 8.73332V19.4C0.666656 20.4609 1.08808 21.4783 1.83823 22.2284C2.58838 22.9786 3.60579 23.4 4.66666 23.4H23.3333C24.3942 23.4 25.4116 22.9786 26.1618 22.2284C26.9119 21.4783 27.3333 20.4609 27.3333 19.4V8.73332C27.3422 8.20245 27.2452 7.67513 27.0482 7.18211C26.8511 6.68908 26.5579 6.24022 26.1856 5.8617C25.8133 5.48318 25.3693 5.18256 24.8796 4.97739C24.3899 4.77221 23.8643 4.66658 23.3333 4.66666ZM24.6667 19.3333C24.6667 19.6869 24.5262 20.0261 24.2761 20.2761C24.0261 20.5262 23.6869 20.6667 23.3333 20.6667H4.66666C4.31303 20.6667 3.9739 20.5262 3.72385 20.2761C3.4738 20.0261 3.33332 19.6869 3.33332 19.3333V8.66666C3.33332 8.31303 3.4738 7.9739 3.72385 7.72385C3.9739 7.4738 4.31303 7.33332 4.66666 7.33332H7.33332C7.62408 7.3485 7.91181 7.26809 8.15257 7.10437C8.39333 6.94065 8.57388 6.70263 8.66666 6.42666L9.38666 4.23999C9.4761 3.97516 9.64652 3.74514 9.87382 3.58244C10.1011 3.41975 10.3738 3.3326 10.6533 3.33332H17.48C17.7595 3.3326 18.0322 3.41975 18.2595 3.58244C18.4868 3.74514 18.6572 3.97516 18.7467 4.23999L19.4667 6.42666C19.5522 6.68098 19.7125 6.90358 19.9266 7.06534C20.1407 7.2271 20.3986 7.3205 20.6667 7.33332H23.3333C23.6869 7.33332 24.0261 7.4738 24.2761 7.72385C24.5262 7.9739 24.6667 8.31303 24.6667 8.66666V19.3333ZM14 7.33332C12.9452 7.33332 11.914 7.64612 11.0369 8.23215C10.1599 8.81819 9.4763 9.65114 9.07263 10.6257C8.66896 11.6002 8.56335 12.6726 8.76913 13.7071C8.97492 14.7417 9.48287 15.692 10.2288 16.4379C10.9746 17.1838 11.9249 17.6917 12.9595 17.8975C13.9941 18.1033 15.0664 17.9977 16.041 17.594C17.0155 17.1903 17.8485 16.5068 18.4345 15.6297C19.0205 14.7526 19.3333 13.7215 19.3333 12.6667C19.3333 11.2522 18.7714 9.89561 17.7712 8.89542C16.771 7.89523 15.4145 7.33332 14 7.33332V7.33332ZM14 15.3333C13.4726 15.3333 12.957 15.1769 12.5185 14.8839C12.0799 14.5909 11.7381 14.1744 11.5363 13.6871C11.3345 13.1999 11.2817 12.6637 11.3846 12.1464C11.4875 11.6291 11.7414 11.154 12.1144 10.781C12.4873 10.4081 12.9625 10.1541 13.4797 10.0512C13.997 9.94833 14.5332 10.0011 15.0205 10.203C15.5077 10.4048 15.9242 10.7466 16.2172 11.1851C16.5103 11.6237 16.6667 12.1392 16.6667 12.6667C16.6667 13.3739 16.3857 14.0522 15.8856 14.5523C15.3855 15.0524 14.7072 15.3333 14 15.3333Z" fill="#4275FA"/>
</svg>
